<svg width="19" height="19" viewBox="0 0 19 19" fill="none" xmlns="http://www.w3.org/2000/svg">
<path fill-rule="evenodd" clip-rule="evenodd" d="M6.45115 4.33256C6.6753 4.30914 6.90272 4.29714 7.13283 4.29714C10.2107 4.29714 12.805 6.44358 13.5997 9.37162C13.6633 9.36749 13.7272 9.3648 13.7916 9.36359C13.7654 9.36314 13.7392 9.36291 13.713 9.36291L13.6917 9.36296L13.6917 9.36284H14.6628H14.7009V9.36252C15.9073 9.34216 16.879 8.35786 16.879 7.1466C16.879 5.9226 15.8868 4.93035 14.6628 4.93035C14.2518 4.93035 13.867 5.04221 13.537 5.23715C13.5361 4.88335 13.4823 4.54196 13.3833 4.22043C12.8899 2.79102 11.5326 1.76429 9.93556 1.76429C8.29702 1.76429 6.9109 2.84503 6.45115 4.33256ZM16.3577 10.1897C17.4402 10.9939 18.1455 12.3092 18.1455 13.7953C18.1455 16.2433 16.2317 18.2278 13.8708 18.2278C13.818 18.2278 13.7654 18.2268 13.713 18.2248V18.2278H7.23341V18.2271C7.19994 18.2276 7.16641 18.2278 7.13283 18.2278C3.42296 18.2278 0.415527 15.1093 0.415527 11.2625C0.415527 8.15615 2.37654 5.52475 5.08491 4.62677C5.46027 2.28609 7.48909 0.497864 9.93556 0.497864C12.0346 0.497864 13.8261 1.81421 14.5298 3.66642C14.5739 3.66476 14.6182 3.66393 14.6628 3.66393C16.5862 3.66393 18.1455 5.22317 18.1455 7.1466C18.1455 8.45475 17.4242 9.59444 16.3577 10.1897ZM13.713 16.9614H7.23341H7.16052V16.9613L7.13283 16.9614C4.16528 16.9614 1.68195 14.4536 1.68195 11.2625C1.68195 8.07138 4.16528 5.56356 7.13283 5.56356C9.65021 5.56356 11.8191 7.36825 12.4192 9.8638L12.4212 9.86302C12.5059 10.2093 12.5599 10.5683 12.5801 10.9367C12.9746 10.7389 13.4136 10.6293 13.8708 10.6293C15.4893 10.6293 16.8791 12.0031 16.8791 13.7953C16.8791 15.575 15.5087 16.9421 13.9048 16.9612V16.9614H13.713Z" fill="white"/>
</svg>
