<svg width="21" height="17" viewBox="0 0 21 17" fill="none" xmlns="http://www.w3.org/2000/svg">
<path fill-rule="evenodd" clip-rule="evenodd" d="M8.86289 3.92365L8.86289 3.9189L4.30085 3.91885L8.67689 2.33759L8.67642 2.33629C8.76022 2.31516 8.84695 2.30764 8.93326 2.31408C8.94464 2.31493 8.95602 2.31602 8.96739 2.31736L8.96756 2.31738C9.08607 2.33134 9.20001 2.37145 9.30113 2.43483L9.30114 2.43484C9.40226 2.49822 9.48804 2.58328 9.55229 2.68387L9.5524 2.68403C9.61661 2.78462 9.65769 2.89823 9.67267 3.01664L9.6727 3.01687C9.68764 3.13533 9.67609 3.25563 9.63887 3.36907L9.63884 3.36916C9.6016 3.48264 9.53961 3.58641 9.45736 3.67298L9.45728 3.67306C9.37505 3.7596 9.27462 3.82677 9.16325 3.86973L9.16304 3.86982C9.15256 3.87385 9.14202 3.87767 9.13141 3.88125C9.04491 3.91051 8.95411 3.92483 8.86289 3.92365ZM0.803711 3.46848V5.53075L8.84631 5.53085C9.15176 5.53428 9.45556 5.47964 9.74143 5.36936L9.74165 5.36928C9.95925 5.28531 10.1629 5.17046 10.3466 5.02878C10.4444 4.95334 10.5365 4.87028 10.6221 4.78023L10.6222 4.78015C10.8684 4.52097 11.054 4.2103 11.1655 3.87059L11.1655 3.8705C11.277 3.5308 11.3116 3.17056 11.2669 2.81584L11.2669 2.81561C11.2221 2.46087 11.0991 2.12052 10.9068 1.81916L10.9066 1.81899C10.7142 1.51759 10.4573 1.26273 10.1543 1.07285L10.1543 1.07284C10.049 1.00686 9.93912 0.94929 9.8256 0.900509C9.61246 0.808916 9.38662 0.748294 9.15495 0.721056L9.15478 0.721036C8.80961 0.680482 8.45988 0.715016 8.1295 0.822131L8.12925 0.821444L8.10452 0.83038L8.10161 0.831362L8.10127 0.831475L8.1013 0.831547L0.803711 3.46848ZM0.803711 10.3739V12.0296L11.4464 15.8158L11.4462 15.8161C11.8314 15.9698 12.2457 16.0366 12.6596 16.0118C12.8188 16.0023 12.9764 15.9793 13.1308 15.9433C13.3779 15.8857 13.6169 15.7948 13.8409 15.6725C14.205 15.4739 14.5207 15.1974 14.7657 14.8627C15.0107 14.5281 15.1789 14.1435 15.2582 13.7364C15.3376 13.3292 15.3262 12.9096 15.2249 12.5074C15.1236 12.1052 14.9348 11.7303 14.672 11.4094C14.5103 11.2119 14.3229 11.0378 14.1155 10.8915C13.986 10.8002 13.8486 10.7196 13.7047 10.651C13.331 10.4727 12.9226 10.3789 12.5086 10.3763V10.3739L0.803711 10.3739ZM12.4977 11.9859L5.49014 11.9858L12.0737 14.328L12.0731 14.3297C12.2296 14.3874 12.3964 14.4121 12.5631 14.4021C12.7404 14.3915 12.9131 14.3419 13.069 14.2568C13.2249 14.1718 13.3601 14.0534 13.465 13.9101C13.5699 13.7667 13.6419 13.602 13.6759 13.4277C13.7099 13.2534 13.705 13.0737 13.6616 12.9014C13.6183 12.7292 13.5374 12.5687 13.4249 12.4313C13.3124 12.2938 13.1709 12.183 13.0107 12.1065C12.8506 12.0301 12.6757 11.99 12.4984 11.9889L12.4977 11.9889L12.4977 11.9886L12.4977 11.9859ZM16.1305 4.12815L16.1298 4.12855L15.3371 2.7251L15.3362 2.72348L15.3378 2.72258C15.767 2.48038 16.2459 2.3398 16.7379 2.31168C16.8093 2.3076 16.8806 2.3059 16.9519 2.30656C17.3724 2.31048 17.7888 2.39668 18.1774 2.56105C18.6318 2.75327 19.036 3.04726 19.359 3.42038C19.6819 3.7935 19.9149 4.23579 20.0401 4.71318C20.1652 5.19057 20.1791 5.69032 20.0807 6.17394C19.9824 6.65756 19.7743 7.11214 19.4727 7.50266C19.2147 7.83657 18.8942 8.11603 18.5298 8.32582C18.468 8.36139 18.4049 8.39496 18.3407 8.42645C17.8977 8.64367 17.4107 8.75627 16.9173 8.75558V8.75535H0.803711V7.14353H16.9196L16.9196 7.14179C17.1661 7.14214 17.4093 7.08589 17.6306 6.97738C17.8519 6.86887 18.0454 6.71099 18.1961 6.51591C18.3468 6.32083 18.4507 6.09376 18.4998 5.85217C18.549 5.61059 18.542 5.36094 18.4795 5.12247C18.417 4.884 18.3006 4.66306 18.1393 4.47667C17.978 4.29029 17.776 4.14343 17.549 4.04741C17.322 3.95139 17.076 3.90877 16.83 3.92284C16.5842 3.93689 16.3449 4.00713 16.1305 4.12815Z" fill="white"/>
</svg>
